PathFileType	4	(X/Y/Z)	C:/Users/beibeiliu/ov580/test_trc/User3\sequence.7_training_dense_left.trc
DataRate	CameraRate	NumFrames	NumMarkers	Units	OrigDataRate	OrigDataStartFrame	OrigNumFrames
120	120	24	19	mm	120	89	236
Frame#	Time	ThumbCMC			ThumbMCP			ThumbIP			ThumbTip			IndexMCP			IndexPIP			IndexTip			MiddleMCP			MiddlePIP			MiddleTip			RingMCP			RingPIP			RingTip			PinkyMCP			PinkyPIP			PinkyTip			BackHand1			BackHand2			BackHand3	
		X0	Y0	Z0	X1	Y1	Z1	X2	Y2	Z2	X3	Y3	Z3	X4	Y4	Z4	X5	Y5	Z5	X6	Y6	Z6	X7	Y7	Z7	X8	Y8	Z8	X9	Y9	Z9	X10	Y10	Z10	X11	Y11	Z11	X12	Y12	Z12	X13	Y13	Z13	X14	Y14	Z14	X15	Y15	Z15	X16	Y16	Z16	X17	Y17	Z17	X18	Y18	Z18	
88	0.733333	-214.91	26.9828	-2.12295	-190.826	33.3949	-24.3643	-163.042	23.2538	-43.2219	-145.289	1.74115	-38.3087	-193.874	-21.5711	-57.2569	-174.408	-28.7889	-81.9922	-156.287	-35.1815	-93.7884	-164.96	-24.4313	-45.4084	-145.602	-2.04932	-32.0633	-170.961	8.616	-7.79188	-162.596	-32.8228	-23.5785	-147.356	-9.11691	-12.1633	-174.055	-1.62451	7.05451	-160.103	-38.0218	-10.7151	-150.596	-15.9103	1.68001	-174.49	-13.2083	19.7693	-214.081	-39.9665	1.57474	-226.563	-32.0711	27.7781	-230.142	-8.94682	-5.937	
89	0.741667	-211.118	28.486	1.43116	-187.183	36.2953	-19.8372	-160.082	26.6189	-34.4944	-141.038	12.3553	-33.7833	-183.983	-15.2908	-55.8464	-162.615	-20.219	-76.7967	-141.982	-22.4332	-93.0066	-158.121	-18.6217	-41.4277	-140.149	4.9529	-26.9513	-167.528	10.4053	-0.511466	-156.223	-25.4864	-21.8777	-142.171	-4.94365	-3.11239	-171.487	3.36728	10.4512	-154.934	-37.4539	-4.00109	-147.401	-12.1146	8.47245	-175.945	-8.64496	19.4307	-207.585	-39.5359	2.3831	-224.368	-31.9396	27.885	-227.028	-6.6496	-5.59899	
90	0.75	-209.823	34.0089	4.50645	-181.849	39.0994	-14.2263	-151.04	33.1679	-29.9641	-134.378	12.7923	-25.9266	-176.946	-10.6691	-52.0786	-156.426	-13.5999	-70.7803	-129.405	-15.0702	-84.7701	-155.776	-13.6558	-36.5714	-133.188	6.313	-22.0167	-165.331	12.3125	4.18686	-152.966	-21.6778	-18.0486	-138.605	-0.0356804	2.95028	-172.599	4.16003	17.3193	-146.742	-31.2008	0.0723843	-143.37	-8.62915	11.8451	-170.366	-4.54915	23.1492	-204.089	-32.4581	-0.671523	-219.293	-30.619	24.8466	-224.609	-2.52216	-5.84413	
91	0.758333	-205.948	36.7547	5.72399	-175.836	46.4513	-10.6554	-146.411	39.4517	-20.8799	-129.05	20.0878	-17.8177	-167.058	-3.07353	-54.8106	-146.451	-6.79865	-67.75	-121.531	-6.12166	-79.2665	-150.413	-7.00223	-34.6503	-129.84	13.8857	-12.8524	-162.19	15.0593	8.29995	-142.488	-15.5208	-13.8029	-134.934	0.910789	9.07156	-166.336	6.39739	21.874	-148.125	-29.0457	1.86343	-141.475	-6.60435	19.8505	-171.455	-3.46166	29.7755	-200.049	-30.6049	-2.88851	-218.763	-27.5575	20.2998	-216.858	-0.391275	-6.08559	
92	0.766667	-202.022	39.7146	10.5592	-172.178	47.5542	-1.60592	-140.171	40.7195	-14.2278	-125.311	19.8342	-9.29781	-163.015	4.05379	-47.6583	-138.335	2.27786	-65.3053	-115.695	2.86875	-72.1621	-142.546	-4.34399	-28.9718	-125.18	14.6107	-7.62278	-161.118	19.4789	11.1572	-139.671	-13.2336	-8.70201	-133.382	5.91655	15.0503	-162.511	12.8959	24.7951	-141.603	-24.6144	5.57135	-138.801	-2.40059	22.8844	-170.374	0.951001	29.4553	-195.231	-28.9524	-0.455962	-218.878	-22.3671	22.3346	-214.529	1.80657	-0.945464	
93	0.775	-197.229	41.7776	14.8706	-163.759	50.2772	2.29371	-136.792	43.6154	-3.18222	-116.396	25.1635	-2.55298	-158.425	15.0548	-46.4476	-133.596	14.5502	-60.7995	-105.913	16.2938	-69.8873	-134.718	5.79193	-26.1702	-120.303	20.6628	-3.27504	-155.548	19.8937	15.7244	-133.708	-7.75165	-4.80512	-128.977	8.16528	17.2195	-162.102	16.6417	26.1945	-139.209	-18.2743	5.35869	-137.158	1.94136	25.6158	-168.708	2.66061	30.9731	-193.268	-21.1503	-4.42416	-214.018	-17.2376	18.9571	-211.509	8.27286	-3.21964	
94	0.783333	-193.943	42.8685	19.0966	-158.306	57.2697	9.54843	-127.334	45.8825	0.988658	-115.111	25.3479	4.20747	-150.214	23.8507	-45.6169	-127.496	21.5951	-56.8439	-103.676	25.5708	-64.9476	-131.331	12.7001	-24.3971	-118.262	26.7559	2.37115	-154.967	21.617	19.2273	-132.094	-3.1117	-4.82252	-125.651	12.3502	18.7002	-160.485	15.7488	30.9235	-136.621	-14.4348	6.75702	-132.957	-1.16496	30.1533	-165.593	4.84349	35.9136	-189.778	-14.7283	-2.82823	-212.557	-15.9572	17.8775	-206.651	11.9606	-1.33489	
95	0.791667	-189.012	47.1813	22.403	-154.902	59.9863	16.0739	-125.891	46.0165	5.23599	-108.97	27.2908	7.66423	-146.72	29.6275	-44.446	-123.046	29.549	-56.3017	-96.9388	31.6738	-64.5283	-128.656	13.5001	-22.2584	-113.118	26.9976	1.06946	-150.063	23.5165	20.9295	-129.819	-1.12367	-3.75048	-122.352	10.9188	19.6453	-152.913	16.8521	33.1402	-135.284	-16.4988	7.41589	-133.889	3.5515	32.0262	-162.42	8.06769	34.4442	-186.817	-13.346	-5.57784	-209.382	-9.82898	19.5529	-205.168	22.2343	-2.17736	
96	0.8	-183.666	51.8363	25.07	-150.12	59.1261	16.8471	-117.648	49.4997	6.72308	-109.105	24.4548	7.32645	-147.915	37.0179	-41.2552	-124.101	41.7704	-57.091	-98.0347	40.5832	-66.6291	-131.675	17.546	-22.06	-112.135	26.662	3.79902	-145.018	27.3782	22.8003	-129.531	5.35071	-7.20267	-120.726	15.542	20.9789	-150.884	18.9775	33.5602	-132.117	-9.09446	5.39341	-131.09	5.63849	29.0134	-158.997	6.63003	37.1797	-186.13	-8.25558	-4.01828	-208.356	-8.88826	17.8729	-203.163	28.5818	4.14269	
97	0.808333	-179.307	54.5919	30.6105	-144.977	62.4566	21.8263	-119.244	49.9897	11.0756	-106.403	22.8417	5.32381	-150.514	45.1278	-38.4454	-123.567	48.6768	-56.9633	-99.087	49.4875	-67.4748	-130.921	20.2357	-22.2497	-110.885	29.6524	3.94221	-144.208	31.3809	23.46	-130.094	7.52685	-8.34231	-119.026	12.446	19.7307	-148.722	19.394	34.9209	-133.251	-7.72631	2.75154	-128.866	7.32085	27.3275	-158.134	9.83889	37.6572	-188.037	1.25156	-4.30408	-208.346	-2.34883	24.7167	-198.913	31.7577	5.48668	
98	0.816667	-173.81	61.7796	36.0776	-137.221	66.784	26.3669	-111.804	50.144	8.47627	-107.532	24.8893	3.88363	-148.167	49.6154	-35.5173	-123.082	54.0817	-54.0672	-102.278	54.5045	-66.2849	-130.875	25.8672	-23.1566	-108.332	30.2727	-1.59103	-143.104	31.3981	23.4988	-131.201	8.76419	-9.44239	-118.244	10.7441	15.944	-144.376	20.8243	34.0932	-136.173	-5.2796	-0.0531578	-128.336	6.20869	24.0279	-157.187	10.8678	37.5437	-187.809	7.40389	-2.58935	-207.81	4.04909	26.6808	-198.047	41.9521	14.4148	
99	0.825	-165.135	60.3112	37.8807	-131.003	64.0391	26.2849	-107.734	51.2974	10.6534	-103.137	25.3753	1.34278	-144.297	55.9965	-35.0113	-125.614	59.3102	-50.9941	-101.608	58.6409	-66.3681	-132.247	29.4207	-24.5513	-107.984	29.0307	-0.543009	-140.993	32.8405	23.1255	-131.267	10.4329	-11.6142	-117.761	13.1936	13.4507	-143.35	23.6656	32.0471	-141.255	-2.00966	-5.76031	-127.116	2.96625	18.7899	-151.43	11.1622	33.8084	-190.857	13.8379	-0.91382	-205.905	13.3908	25.972	-196.379	46.5254	18.0566	
100	0.833333	-160.816	59.8295	47.2566	-124.817	64.0891	28.9981	-105.986	50.4922	10.1799	-101.557	26.1655	-4.29184	-144.714	62.7609	-30.2239	-126.416	63.4114	-48.7864	-103.684	60.6627	-68.4851	-129.408	32.4413	-26.0908	-107.821	26.9942	-5.06271	-138.327	34.5873	22.5069	-136.896	15.4191	-15.4233	-118.59	12.7208	9.01462	-145.301	22.7932	31.1666	-142.46	-2.9783	-8.16893	-128.209	3.31865	14.4626	-151.351	11.5621	33.2833	-191.002	21.5135	0.550882	-205.749	20.6931	32.7266	-189.002	53.9959	23.6022	
101	0.841667	-154.365	62.2674	44.9242	-125.722	60.9253	30.2464	-108.832	48.142	7.3133	-105.565	27.0807	-7.80558	-146.227	66.6737	-29.3682	-129.592	67.9408	-48.2426	-109.679	62.3735	-71.9377	-136.486	37.2137	-25.8112	-111.543	25.7446	-5.44827	-137.476	30.2443	20.2596	-138.737	18.4638	-17.2862	-122.567	10.6483	9.73624	-144.985	22.4875	29.6861	-146.592	0.453455	-11.2135	-130.411	3.86863	9.79191	-153.249	11.3153	32.6416	-193.415	27.6681	3.69552	-203.786	22.3679	31.4171	-187.542	58.9142	24.1371	
102	0.85	-151.134	62.1127	46.3449	-121.59	61.1349	26.0501	-107.321	47.8721	4.48811	-107.802	25.7273	-11.86	-147.955	70.1472	-31.3396	-133.403	70.2292	-51.4599	-119.474	64.5991	-71.3371	-138.116	36.2662	-28.9517	-111.296	29.4067	-10.9986	-136.435	31.7575	19.7306	-143.629	16.9612	-18.2348	-123.698	12.434	5.68434	-145.972	21.4922	28.6814	-151.955	4.51032	-12.5692	-132.881	5.5582	9.26438	-153.78	10.6392	31.966	-194.127	29.0025	5.1497	-202.569	27.8169	34.8772	-187.083	57.4687	26.9998	
103	0.858333	-150.296	55.8193	45.8558	-122.88	57.0106	26.2	-105.992	46.3927	1.06563	-110.308	24.0661	-17.4978	-153.345	67.3184	-30.4052	-139.536	68.0288	-54.1209	-124.65	65.4892	-76.0991	-142.492	37.1629	-30.0772	-116.111	24.5453	-14.0071	-134.299	30.452	16.8308	-146.303	19.7384	-20.6743	-125.702	11.0422	0.170817	-146.437	21.8375	26.4276	-153.941	3.7433	-15.1724	-135.411	4.41572	6.47397	-153.731	12.5424	31.4037	-194.635	29.9841	7.01013	-202.794	27.0617	36.8163	-185.56	56.157	29.7977	
104	0.866667	-149.431	52.3966	47.7274	-123.068	52.3877	22.5478	-107.58	41.9991	-3.05382	-114.681	20.3055	-23.386	-155.012	66.5726	-30.4391	-143.186	64.8328	-56.3918	-131.334	61.0464	-80.1332	-147.242	33.7205	-31.7435	-119.605	21.189	-19.8967	-139.862	28.5792	15.5547	-148.74	14.8094	-23.8957	-129.055	6.70128	-5.60373	-145.788	19.277	23.5023	-162.296	2.46714	-16.5351	-139.265	-0.0840672	1.45758	-153.554	6.05231	28.61	-199.045	29.4239	7.31863	-207.744	23.4549	41.5621	-182.744	56.0528	34.3139	
105	0.875	-148.807	47.6182	43.1201	-122.188	46.7696	22.2084	-113.513	36.053	-6.1937	-115.025	19.461	-21.6722	-154.49	64.294	-30.1264	-147.407	61.1112	-53.9918	-134.319	59.9921	-81.5034	-148.486	34.7732	-33.2313	-122.851	16.8404	-24.8375	-138.586	23.2227	12.9055	-157.873	14.4691	-24.8934	-132.021	2.37628	-6.25509	-149.119	14.8655	22.265	-165.458	-3.9264	-18.9719	-143.597	-7.97323	-2.03412	-153.292	4.29242	22.947	-197.833	31.2375	9.8556	-205.91	24.6652	42.1508	-183.083	50.5439	29.6395	
106	0.883333	-144.679	43.593	44.6972	-118.936	40.7754	21.9357	-112.422	29.9088	-9.14573	-121.915	10.306	-28.2191	-155.371	59.0698	-33.9919	-147.449	58.7546	-57.4754	-137.521	54.1576	-81.1829	-149.889	26.2781	-37.1498	-126.792	9.6772	-26.5257	-143.807	14.7824	10.3359	-160.385	9.8548	-26.9384	-139.045	-6.67247	-11.4864	-150.627	4.34956	17.9074	-165.782	-5.77034	-21.3354	-148.438	-15.8904	-3.05701	-161.039	-2.19356	25.0285	-199.713	25.5314	7.28329	-206.444	20.2459	42.4608	-180.36	49.3092	33.5571	
107	0.891667	-145.835	34.1423	43.2901	-121.629	32.0721	14.8118	-113.946	21.6427	-9.82092	-122.359	3.67966	-30.6737	-155.331	54.5144	-31.5919	-148.53	52.629	-58.3168	-139.369	46.4015	-83.1057	-151.758	19.154	-38.3959	-128.515	1.58379	-26.359	-143.007	7.60538	6.26837	-161.966	1.32739	-28.8847	-142.987	-16.0141	-14.1674	-150.643	0.535128	16.3595	-170.806	-11.7289	-23.34	-151.786	-19.2948	-6.34402	-161.032	-6.41283	20.1944	-202.02	21.4426	6.88775	-206.563	16.813	41.1944	-181.454	45.7036	30.8172	
108	0.9	-144.095	28.4168	41.3818	-122.958	23.6291	14.1424	-113.134	13.9321	-13.1746	-122.51	-3.59704	-30.0576	-154.33	48.71	-33.8898	-147.871	47.4935	-60.3949	-135.825	43.1922	-86.7104	-151.098	15.1395	-40.7498	-130.565	-6.45191	-27.4448	-144.869	5.01392	5.96578	-161.582	-6.10511	-31.7032	-145.109	-22.2588	-15.924	-153.643	-5.57569	13.9366	-173.152	-17.6916	-23.7687	-154.209	-26.7838	-4.33556	-160.614	-12.6692	18.7267	-200.07	20.7543	6.72862	-205.949	16.2019	38.1891	-178.431	38.563	27.8913	
109	0.908333	-142.544	22.032	37.0853	-116.887	17.9007	13.3148	-113.566	5.25212	-13.8117	-127.153	-11.7301	-32.4933	-153.639	40.5353	-37.1301	-146.323	41.4775	-59.2058	-137.122	37.8184	-83.6264	-154.877	10.9555	-39.1136	-131.606	-13.5444	-31.6147	-145.884	-5.88599	1.72825	-163.792	-9.0108	-32.7383	-145.895	-26.8125	-14.74	-154.797	-14.9061	11.9575	-174.745	-23.8342	-25.6855	-154.679	-29.5083	-7.30432	-164.991	-19.0025	19.2686	-200.061	15.2214	8.94574	-205.239	13.2119	40.3371	-176.527	35.3622	30.7619	
110	0.916667	-138.173	15.7531	41.5043	-114.337	9.83098	11.1024	-112.635	-2.62076	-15.5741	-129.239	-17.5432	-28.6814	-150.498	35.2655	-35.7158	-145.062	33.0473	-63.4269	-136.858	31.047	-84.6488	-151.553	3.59949	-41.4328	-134.164	-22.0645	-32.8348	-146.763	-8.68385	4.2887	-163.625	-12.707	-32.9523	-147.212	-33.5915	-18.17	-155.776	-20.3703	12.1596	-175.758	-25.3802	-25.0135	-157.667	-36.4385	-8.6224	-164.855	-23.2953	15.4242	-198.461	11.6288	8.73677	-203.783	8.65962	40.4189	-172.17	31.5461	30.5985	
111	0.925	-136.356	10.4808	40.0976	-113.918	2.76052	17.3341	-109.146	-8.44708	-11.7783	-122.423	-25.0105	-29.5744	-147.306	29.2965	-35.6304	-143.726	27.8976	-61.3878	-135.601	20.7469	-88.1103	-149.334	-1.5845	-42.0245	-134.429	-28.1837	-34.7387	-145.363	-17.0286	3.09841	-164.176	-20.6038	-31.4983	-148.498	-41.2237	-17.1615	-154.189	-25.8006	12.2047	-179.753	-31.4808	-23.6612	-158.902	-45.5385	-8.34638	-166.642	-27.7115	20.8426	-192.878	10.1228	5.01533	-198.895	7.21403	40.2823	-171.071	24.3446	30.6925	
